<?xml version="1.0" encoding="utf-8"?>
<!-- Generator: Adobe Illustrator 17.1.0, SVG Export Plug-In . SVG Version: 6.00 Build 0)  -->
<!DOCTYPE svg PUBLIC "-//W3C//DTD SVG 1.1//EN" "http://www.w3.org/Graphics/SVG/1.1/DTD/svg11.dtd">
<svg version="1.1" id="Layer_1" xmlns="http://www.w3.org/2000/svg" xmlns:xlink="http://www.w3.org/1999/xlink" x="0px" y="0px"
	 viewBox="0 0 463 466.4" enable-background="new 0 0 463 466.4" xml:space="preserve">
<path fill="#EDE8D5" d="M112,140.5c0,6.6-5.4,12-12,12H36.1c-6.6,0-12-5.4-12-12v-26.2c0-6.6,5.4-12,12-12H100c6.6,0,12,5.4,12,12
	V140.5z"/>
<text transform="matrix(1 0 0 1 24.0655 32.6372)"><tspan x="0" y="0" fill="#2E89CA" font-family="'HelveticaNeue-Bold'" font-size="25.6261">Commits </tspan><tspan x="117.6" y="0" fill="#EDE8D5" font-family="'HelveticaNeue-Bold'" font-size="13.9779">(</tspan><tspan x="122.3" y="0" fill="#EDE8D5" font-family="'HelveticaNeue-Bold'" font-size="13.9779">working folder, staging area, repository)</tspan></text>
<circle fill="#849A3B" cx="66.7" cy="69.8" r="11.7"/>
<circle fill="#849A3B" cx="403.5" cy="69.8" r="11.7"/>
<line fill="none" stroke="#B48A2E" stroke-miterlimit="10" x1="83" y1="69.8" x2="387" y2="69.8"/>
<polygon fill="#DC332D" points="59.6,98.3 66.7,91.2 73.8,98.3 "/>
<text transform="matrix(1 0 0 1 44.5618 125.347)"><tspan x="0" y="0" fill="#063642" font-family="'HelveticaNeue-Bold'" font-size="14">working</tspan><tspan x="7.4" y="12.8" fill="#063642" font-family="'HelveticaNeue-Bold'" font-size="14">folder</tspan></text>
<path fill="#2E89CA" d="M276,140.5c0,6.6-5.4,12-12,12h-63.9c-6.6,0-12-5.4-12-12v-26.2c0-6.6,5.4-12,12-12H264c6.6,0,12,5.4,12,12
	V140.5z"/>
<text transform="matrix(1 0 0 1 210.7596 125.347)"><tspan x="0" y="0" fill="#063642" font-family="'HelveticaNeue-Bold'" font-size="14">staging</tspan><tspan x="9.6" y="12.8" fill="#063642" font-family="'HelveticaNeue-Bold'" font-size="14">area</tspan></text>
<path fill="#849A3B" d="M443,140.5c0,6.6-5.4,12-12,12h-63.9c-6.6,0-12-5.4-12-12v-26.2c0-6.6,5.4-12,12-12H431c6.6,0,12,5.4,12,12
	V140.5z"/>
<text transform="matrix(1 0 0 1 386.3064 125.347)"><tspan x="0" y="0" fill="#063642" font-family="'HelveticaNeue-Bold'" font-size="14">local</tspan><tspan x="0.5" y="12.8" fill="#063642" font-family="'HelveticaNeue-Bold'" font-size="14">repo</tspan></text>
<line fill="none" stroke="#D43783" stroke-miterlimit="10" x1="232" y1="159.4" x2="232" y2="253.4"/>
<line fill="none" stroke="#D43783" stroke-miterlimit="10" x1="66.7" y1="253.4" x2="66.7" y2="159.4"/>
<line fill="none" stroke="#D43783" stroke-miterlimit="10" x1="397.4" y1="159.4" x2="397.4" y2="253.4"/>
<g>
	<rect x="74.7" y="188.5" fill="#D43783" width="120" height="31.7"/>
	<polygon fill="#D43783" points="182.5,162.3 224.5,204.3 182.5,246.4 	"/>
</g>
<g>
	<rect x="242" y="188.5" fill="#DC332D" width="118.2" height="31.7"/>
	<polygon fill="#DC332D" points="346,162.3 388,204.3 346,246.4 	"/>
</g>
<text transform="matrix(1 0 0 1 116.1132 209.9527)" fill="#EDE8D5" font-family="'HelveticaNeue-Bold'" font-size="14">git add</text>
<text transform="matrix(1 0 0 1 274.6913 207.9527)" fill="#EDE8D5" font-family="'HelveticaNeue-Bold'" font-size="14">git commit</text>
</svg>
