<?xml version="1.0" encoding="utf-8"?>
<!-- Generator: Adobe Illustrator 17.1.0, SVG Export Plug-In . SVG Version: 6.00 Build 0)  -->
<!DOCTYPE svg PUBLIC "-//W3C//DTD SVG 1.1//EN" "http://www.w3.org/Graphics/SVG/1.1/DTD/svg11.dtd">
<svg version="1.1" id="Layer_1" xmlns="http://www.w3.org/2000/svg" xmlns:xlink="http://www.w3.org/1999/xlink" x="0px" y="0px"
	 viewBox="0 0 505.6 135.7" enable-background="new 0 0 505.6 135.7" xml:space="preserve">
<circle fill="#849A3B" cx="27.4" cy="84" r="7.9"/>
<circle fill="#849A3B" cx="102.7" cy="84" r="7.9"/>
<line fill="none" stroke="#B48A2E" stroke-miterlimit="10" x1="40.7" y1="84" x2="89.4" y2="84"/>
<line fill="none" stroke="#B48A2E" stroke-miterlimit="10" x1="116" y1="84" x2="164.7" y2="84"/>
<circle fill="#849A3B" cx="178" cy="84" r="7.9"/>
<line fill="none" stroke="#B48A2E" stroke-miterlimit="10" x1="190.4" y1="76.1" x2="239" y2="45.9"/>
<line fill="none" stroke="#B48A2E" stroke-miterlimit="10" x1="316" y1="76.1" x2="267.4" y2="45.9"/>
<circle fill="#849A3B" cx="326.1" cy="84" r="7.9"/>
<circle fill="#D43783" cx="253.4" cy="38" r="7.9"/>
<line fill="none" stroke="#B48A2E" stroke-miterlimit="10" x1="339.4" y1="84" x2="388.1" y2="84"/>
<circle fill="#849A3B" cx="401.4" cy="84" r="7.9"/>
<g>
	<path fill="#2E89CA" d="M46,27.5c-0.2-0.4-0.5-0.7-0.9-1c-0.4-0.3-0.8-0.5-1.2-0.7c-0.5-0.2-0.9-0.2-1.4-0.2
		c-0.9,0-1.7,0.2-2.3,0.5c-0.6,0.4-1.1,0.8-1.5,1.4c-0.4,0.6-0.7,1.3-0.9,2c-0.2,0.8-0.3,1.5-0.3,2.3c0,0.8,0.1,1.5,0.3,2.2
		c0.2,0.7,0.5,1.4,0.9,2c0.4,0.6,0.9,1,1.5,1.4c0.6,0.4,1.4,0.5,2.3,0.5c1.2,0,2.2-0.4,2.9-1.1c0.7-0.8,1.1-1.7,1.3-3h3.9
		c-0.1,1.1-0.4,2.2-0.8,3.1c-0.4,0.9-1,1.7-1.7,2.4c-0.7,0.6-1.5,1.1-2.5,1.5c-0.9,0.3-2,0.5-3.1,0.5c-1.4,0-2.7-0.2-3.8-0.7
		c-1.1-0.5-2.1-1.2-2.8-2c-0.8-0.9-1.4-1.9-1.8-3c-0.4-1.2-0.6-2.4-0.6-3.7c0-1.4,0.2-2.6,0.6-3.8c0.4-1.2,1-2.2,1.8-3.1
		c0.8-0.9,1.7-1.6,2.8-2.1c1.1-0.5,2.4-0.7,3.8-0.7c1,0,2,0.1,2.9,0.4c0.9,0.3,1.7,0.7,2.4,1.3c0.7,0.6,1.3,1.2,1.8,2.1
		c0.5,0.8,0.8,1.8,0.9,2.8h-3.9C46.4,28.3,46.3,27.9,46,27.5z"/>
	<path fill="#2E89CA" d="M53,31.5c0.3-0.9,0.8-1.6,1.4-2.2c0.6-0.6,1.3-1.1,2.2-1.4c0.8-0.3,1.8-0.5,2.8-0.5s2,0.2,2.8,0.5
		s1.6,0.8,2.2,1.4c0.6,0.6,1.1,1.3,1.4,2.2c0.3,0.9,0.5,1.8,0.5,2.9c0,1.1-0.2,2-0.5,2.9c-0.3,0.9-0.8,1.6-1.4,2.2
		c-0.6,0.6-1.3,1.1-2.2,1.4s-1.8,0.5-2.8,0.5s-2-0.2-2.8-0.5S55,40,54.4,39.4c-0.6-0.6-1.1-1.3-1.4-2.2c-0.3-0.9-0.5-1.8-0.5-2.9
		S52.7,32.3,53,31.5z M56.3,35.9c0.1,0.5,0.3,1,0.5,1.4c0.2,0.4,0.6,0.7,1,1c0.4,0.2,0.9,0.4,1.5,0.4c0.6,0,1.1-0.1,1.5-0.4
		c0.4-0.2,0.8-0.6,1-1c0.2-0.4,0.4-0.9,0.5-1.4s0.2-1,0.2-1.5c0-0.5-0.1-1.1-0.2-1.6s-0.3-1-0.5-1.4c-0.2-0.4-0.6-0.7-1-1
		c-0.4-0.2-0.9-0.4-1.5-0.4c-0.6,0-1.1,0.1-1.5,0.4c-0.4,0.2-0.7,0.6-1,1c-0.2,0.4-0.4,0.8-0.5,1.4s-0.2,1-0.2,1.6
		S56.2,35.4,56.3,35.9z"/>
	<path fill="#2E89CA" d="M72.1,27.7v1.8h0.1c0.5-0.7,1.1-1.2,1.7-1.6c0.7-0.4,1.4-0.6,2.3-0.6c0.8,0,1.6,0.2,2.3,0.5
		c0.7,0.3,1.2,0.9,1.6,1.7c0.4-0.6,0.9-1.1,1.6-1.5c0.7-0.4,1.5-0.7,2.4-0.7c0.7,0,1.3,0.1,1.9,0.3c0.6,0.2,1.1,0.4,1.5,0.8
		s0.8,0.9,1,1.5s0.4,1.3,0.4,2.2V41h-3.6v-7.5c0-0.4,0-0.9-0.1-1.3c0-0.4-0.1-0.7-0.3-1s-0.4-0.5-0.7-0.7s-0.7-0.3-1.2-0.3
		c-0.5,0-0.9,0.1-1.2,0.3c-0.3,0.2-0.6,0.5-0.7,0.8c-0.2,0.3-0.3,0.7-0.4,1.1c-0.1,0.4-0.1,0.8-0.1,1.2V41H77v-7.4
		c0-0.4,0-0.8,0-1.2c0-0.4-0.1-0.7-0.2-1.1c-0.1-0.3-0.3-0.6-0.6-0.8c-0.3-0.2-0.7-0.3-1.3-0.3c-0.2,0-0.4,0-0.7,0.1
		c-0.3,0.1-0.6,0.2-0.8,0.4s-0.5,0.5-0.7,0.9c-0.2,0.4-0.3,0.9-0.3,1.6V41h-3.6V27.7H72.1z"/>
	<path fill="#2E89CA" d="M95.3,27.7v1.8h0.1c0.5-0.7,1.1-1.2,1.7-1.6c0.7-0.4,1.4-0.6,2.3-0.6c0.8,0,1.6,0.2,2.3,0.5
		c0.7,0.3,1.2,0.9,1.6,1.7c0.4-0.6,0.9-1.1,1.6-1.5c0.7-0.4,1.5-0.7,2.4-0.7c0.7,0,1.3,0.1,1.9,0.3c0.6,0.2,1.1,0.4,1.5,0.8
		s0.8,0.9,1,1.5s0.4,1.3,0.4,2.2V41h-3.6v-7.5c0-0.4,0-0.9-0.1-1.3c0-0.4-0.1-0.7-0.3-1s-0.4-0.5-0.7-0.7s-0.7-0.3-1.2-0.3
		c-0.5,0-0.9,0.1-1.2,0.3c-0.3,0.2-0.6,0.5-0.7,0.8c-0.2,0.3-0.3,0.7-0.4,1.1c-0.1,0.4-0.1,0.8-0.1,1.2V41h-3.6v-7.4
		c0-0.4,0-0.8,0-1.2c0-0.4-0.1-0.7-0.2-1.1c-0.1-0.3-0.3-0.6-0.6-0.8c-0.3-0.2-0.7-0.3-1.3-0.3c-0.2,0-0.4,0-0.7,0.1
		c-0.3,0.1-0.6,0.2-0.8,0.4s-0.5,0.5-0.7,0.9c-0.2,0.4-0.3,0.9-0.3,1.6V41h-3.6V27.7H95.3z"/>
	<path fill="#2E89CA" d="M115.1,25.7v-3h3.6v3H115.1z M118.7,27.7V41h-3.6V27.7H118.7z"/>
	<path fill="#2E89CA" d="M128.9,27.7v2.4h-2.7v6.6c0,0.6,0.1,1,0.3,1.2c0.2,0.2,0.6,0.3,1.2,0.3c0.2,0,0.4,0,0.6,0
		c0.2,0,0.4,0,0.5-0.1V41c-0.3,0.1-0.6,0.1-1,0.1c-0.4,0-0.7,0-1.1,0c-0.6,0-1.1,0-1.6-0.1c-0.5-0.1-0.9-0.2-1.3-0.4
		c-0.4-0.2-0.7-0.5-0.9-0.9c-0.2-0.4-0.3-0.9-0.3-1.6v-7.8h-2.2v-2.4h2.2v-4h3.6v4L128.9,27.7L128.9,27.7z"/>
	<path fill="#2E89CA" d="M133.7,37.7c0.2,0.3,0.4,0.5,0.6,0.7c0.3,0.2,0.6,0.3,0.9,0.4s0.7,0.1,1,0.1c0.3,0,0.5,0,0.8-0.1
		c0.3-0.1,0.5-0.2,0.8-0.3s0.4-0.3,0.6-0.5c0.2-0.2,0.2-0.5,0.2-0.8c0-0.5-0.4-1-1.1-1.2c-0.7-0.3-1.7-0.5-3-0.8
		c-0.5-0.1-1-0.3-1.6-0.4c-0.5-0.2-1-0.4-1.3-0.6c-0.4-0.3-0.7-0.6-0.9-1c-0.2-0.4-0.4-0.9-0.4-1.5c0-0.9,0.2-1.6,0.5-2.1
		c0.3-0.5,0.8-1,1.3-1.3c0.5-0.3,1.2-0.5,1.8-0.7c0.7-0.1,1.4-0.2,2.1-0.2c0.7,0,1.4,0.1,2.1,0.2c0.7,0.1,1.3,0.4,1.8,0.7
		c0.5,0.3,1,0.8,1.3,1.3c0.3,0.5,0.6,1.2,0.6,2h-3.5c-0.1-0.7-0.3-1.2-0.8-1.4c-0.5-0.2-1-0.4-1.7-0.4c-0.2,0-0.4,0-0.7,0
		c-0.2,0-0.5,0.1-0.7,0.2c-0.2,0.1-0.4,0.2-0.5,0.4c-0.1,0.2-0.2,0.4-0.2,0.7c0,0.3,0.1,0.6,0.4,0.8c0.2,0.2,0.6,0.4,0.9,0.5
		c0.4,0.1,0.8,0.2,1.3,0.3c0.5,0.1,1,0.2,1.5,0.3c0.5,0.1,1,0.3,1.6,0.4c0.5,0.2,1,0.4,1.3,0.7c0.4,0.3,0.7,0.6,0.9,1.1
		c0.2,0.4,0.4,0.9,0.4,1.5c0,0.9-0.2,1.6-0.5,2.2c-0.4,0.6-0.8,1.1-1.4,1.4c-0.6,0.4-1.2,0.6-1.9,0.8s-1.5,0.2-2.2,0.2
		c-0.8,0-1.5-0.1-2.3-0.2c-0.7-0.2-1.4-0.4-2-0.8c-0.6-0.4-1-0.8-1.4-1.4c-0.4-0.6-0.6-1.3-0.6-2.2h3.5
		C133.5,37,133.5,37.4,133.7,37.7z"/>
	<path fill="#EDE8D5" d="M37.5,48.6c-0.2,1.1-0.4,2.2-0.4,3.2c0,1.1,0.1,2.2,0.4,3.3c0.2,1.1,0.6,2.1,1.2,3.1H37c-0.6-1-1-2-1.4-3
		c-0.3-1.1-0.5-2.1-0.5-3.2c0-0.5,0-1.1,0.1-1.6c0.1-0.6,0.2-1.1,0.4-1.7c0.2-0.6,0.3-1.1,0.6-1.6c0.2-0.5,0.5-1,0.8-1.5h1.7
		C38.1,46.5,37.7,47.5,37.5,48.6z"/>
	<path fill="#EDE8D5" d="M41.3,45.8v3.6h0c0.2-0.4,0.6-0.6,1-0.8c0.4-0.2,0.8-0.3,1.3-0.3c0.4,0,0.7,0.1,1.1,0.2
		c0.4,0.1,0.7,0.4,1,0.7s0.5,0.7,0.7,1.2s0.3,1.1,0.3,1.7s-0.1,1.2-0.3,1.7c-0.2,0.5-0.4,0.9-0.7,1.2c-0.3,0.3-0.6,0.5-1,0.7
		c-0.4,0.1-0.7,0.2-1.1,0.2c-0.5,0-1-0.1-1.4-0.3c-0.4-0.2-0.7-0.5-0.9-0.9h0v0.9h-1.9v-10H41.3z M44.5,51.3
		c-0.1-0.3-0.2-0.5-0.3-0.7s-0.3-0.4-0.5-0.5c-0.2-0.1-0.5-0.2-0.8-0.2c-0.3,0-0.5,0.1-0.8,0.2c-0.2,0.1-0.4,0.3-0.5,0.5
		s-0.2,0.5-0.3,0.7c-0.1,0.3-0.1,0.6-0.1,0.9c0,0.3,0,0.6,0.1,0.9c0.1,0.3,0.2,0.5,0.3,0.7c0.1,0.2,0.3,0.4,0.5,0.5
		c0.2,0.1,0.5,0.2,0.8,0.2c0.3,0,0.6-0.1,0.8-0.2c0.2-0.1,0.4-0.3,0.5-0.5c0.1-0.2,0.2-0.5,0.3-0.7c0.1-0.3,0.1-0.6,0.1-0.9
		C44.6,51.8,44.6,51.5,44.5,51.3z"/>
	<path fill="#EDE8D5" d="M49.7,48.5v1.3h0c0.1-0.2,0.2-0.4,0.4-0.6c0.2-0.2,0.3-0.4,0.5-0.5c0.2-0.1,0.4-0.2,0.7-0.3
		c0.2-0.1,0.5-0.1,0.7-0.1c0.1,0,0.3,0,0.4,0.1v1.8c-0.1,0-0.2,0-0.3,0c-0.1,0-0.3,0-0.4,0c-0.4,0-0.7,0.1-0.9,0.2s-0.5,0.3-0.6,0.5
		c-0.2,0.2-0.3,0.5-0.3,0.7c-0.1,0.3-0.1,0.6-0.1,0.9v3.3h-2v-7.2H49.7z"/>
	<path fill="#EDE8D5" d="M55.2,54c0.3,0.3,0.7,0.4,1.3,0.4c0.4,0,0.7-0.1,1-0.3c0.3-0.2,0.5-0.4,0.5-0.6h1.7
		c-0.3,0.9-0.7,1.5-1.3,1.9c-0.6,0.4-1.3,0.6-2.1,0.6c-0.6,0-1.1-0.1-1.5-0.3c-0.5-0.2-0.8-0.4-1.2-0.8c-0.3-0.3-0.6-0.7-0.7-1.2
		c-0.2-0.5-0.3-1-0.3-1.5c0-0.5,0.1-1,0.3-1.5c0.2-0.5,0.4-0.9,0.8-1.2s0.7-0.6,1.2-0.8c0.5-0.2,1-0.3,1.5-0.3
		c0.6,0,1.1,0.1,1.6,0.4c0.5,0.2,0.8,0.6,1.1,1c0.3,0.4,0.5,0.9,0.6,1.4c0.1,0.5,0.2,1,0.1,1.6h-5.2C54.7,53.3,54.9,53.7,55.2,54z
		 M57.4,50.2c-0.2-0.3-0.6-0.4-1.1-0.4c-0.3,0-0.6,0.1-0.8,0.2c-0.2,0.1-0.4,0.2-0.5,0.4c-0.1,0.2-0.2,0.3-0.3,0.5
		c-0.1,0.2-0.1,0.3-0.1,0.5h3.2C57.8,50.8,57.6,50.5,57.4,50.2z"/>
	<path fill="#EDE8D5" d="M61.3,49.6c0.2-0.3,0.5-0.6,0.8-0.7c0.3-0.2,0.7-0.3,1.1-0.4c0.4-0.1,0.8-0.1,1.2-0.1c0.4,0,0.7,0,1.1,0.1
		c0.4,0.1,0.7,0.2,1,0.3c0.3,0.1,0.6,0.4,0.8,0.6c0.2,0.3,0.3,0.6,0.3,1.1v3.8c0,0.3,0,0.6,0.1,0.9c0,0.3,0.1,0.5,0.2,0.7h-2
		c0-0.1-0.1-0.2-0.1-0.3c0-0.1,0-0.2,0-0.4c-0.3,0.3-0.7,0.6-1.1,0.7s-0.9,0.2-1.3,0.2c-0.3,0-0.7,0-1-0.1c-0.3-0.1-0.6-0.2-0.8-0.4
		c-0.2-0.2-0.4-0.4-0.5-0.7c-0.1-0.3-0.2-0.6-0.2-1c0-0.4,0.1-0.7,0.2-1c0.1-0.3,0.3-0.5,0.6-0.6c0.2-0.2,0.5-0.3,0.8-0.4
		c0.3-0.1,0.6-0.1,0.9-0.2c0.3,0,0.6-0.1,0.9-0.1s0.5-0.1,0.8-0.1c0.2-0.1,0.4-0.1,0.5-0.2c0.1-0.1,0.2-0.3,0.2-0.5
		c0-0.2,0-0.4-0.1-0.5c-0.1-0.1-0.2-0.2-0.3-0.3c-0.1-0.1-0.3-0.1-0.4-0.1c-0.2,0-0.3,0-0.5,0c-0.4,0-0.7,0.1-0.9,0.3
		c-0.2,0.2-0.4,0.4-0.4,0.8h-2C61,50.3,61.1,49.9,61.3,49.6z M65.3,52.4c-0.1,0-0.3,0.1-0.4,0.1s-0.3,0.1-0.5,0.1
		c-0.2,0-0.3,0-0.5,0.1c-0.1,0-0.3,0.1-0.4,0.1c-0.1,0-0.3,0.1-0.4,0.2c-0.1,0.1-0.2,0.2-0.3,0.3c-0.1,0.1-0.1,0.3-0.1,0.5
		c0,0.2,0,0.3,0.1,0.4c0.1,0.1,0.2,0.2,0.3,0.3c0.1,0.1,0.2,0.1,0.4,0.1c0.1,0,0.3,0,0.5,0c0.4,0,0.7-0.1,0.9-0.2
		c0.2-0.1,0.4-0.3,0.5-0.5c0.1-0.2,0.2-0.4,0.2-0.6c0-0.2,0-0.3,0-0.4v-0.7C65.5,52.3,65.4,52.3,65.3,52.4z"/>
	<path fill="#EDE8D5" d="M71.3,45.8v5.4l2.5-2.6h2.3l-2.7,2.7l3,4.6H74l-2-3.2l-0.8,0.7v2.5h-2v-10L71.3,45.8L71.3,45.8z"/>
	<path fill="#EDE8D5" d="M79,48.5v0.9h0c0.2-0.4,0.6-0.7,0.9-0.9c0.4-0.2,0.8-0.3,1.2-0.3c0.6,0,1.1,0.1,1.5,0.3s0.8,0.5,1,0.9
		c0.3,0.4,0.5,0.8,0.6,1.2c0.1,0.5,0.2,1,0.2,1.5c0,0.5-0.1,1-0.2,1.4c-0.1,0.4-0.3,0.8-0.6,1.2c-0.3,0.3-0.6,0.6-1,0.8
		c-0.4,0.2-0.9,0.3-1.4,0.3c-0.4,0-0.9-0.1-1.2-0.3s-0.7-0.5-0.9-0.8h0v3.4h-2v-9.8H79z M81.6,54.2c0.2-0.1,0.4-0.3,0.5-0.5
		c0.1-0.2,0.2-0.5,0.3-0.7c0.1-0.3,0.1-0.6,0.1-0.9c0-0.3,0-0.6-0.1-0.9c-0.1-0.3-0.2-0.5-0.3-0.7c-0.1-0.2-0.3-0.4-0.5-0.5
		c-0.2-0.1-0.5-0.2-0.8-0.2c-0.3,0-0.6,0.1-0.8,0.2s-0.4,0.3-0.5,0.5s-0.2,0.5-0.3,0.7c-0.1,0.3-0.1,0.6-0.1,0.9
		c0,0.3,0,0.6,0.1,0.9c0.1,0.3,0.2,0.5,0.3,0.7c0.1,0.2,0.3,0.4,0.5,0.5s0.5,0.2,0.8,0.2C81.1,54.4,81.4,54.4,81.6,54.2z"/>
	<path fill="#EDE8D5" d="M85.7,50.6c0.2-0.5,0.4-0.9,0.8-1.2c0.3-0.3,0.7-0.6,1.2-0.8s1-0.3,1.5-0.3s1.1,0.1,1.5,0.3
		c0.5,0.2,0.9,0.4,1.2,0.8c0.3,0.3,0.6,0.7,0.8,1.2c0.2,0.5,0.3,1,0.3,1.6c0,0.6-0.1,1.1-0.3,1.6c-0.2,0.5-0.4,0.9-0.8,1.2
		c-0.3,0.3-0.7,0.6-1.2,0.8c-0.5,0.2-1,0.3-1.5,0.3s-1.1-0.1-1.5-0.3c-0.5-0.2-0.8-0.4-1.2-0.8c-0.3-0.3-0.6-0.7-0.8-1.2
		s-0.3-1-0.3-1.6C85.4,51.6,85.5,51,85.7,50.6z M87.5,53c0.1,0.3,0.2,0.5,0.3,0.7c0.1,0.2,0.3,0.4,0.5,0.5s0.5,0.2,0.8,0.2
		s0.6-0.1,0.8-0.2c0.2-0.1,0.4-0.3,0.5-0.5c0.1-0.2,0.2-0.5,0.3-0.7c0.1-0.3,0.1-0.6,0.1-0.8c0-0.3,0-0.6-0.1-0.9
		c-0.1-0.3-0.2-0.5-0.3-0.7c-0.1-0.2-0.3-0.4-0.5-0.5c-0.2-0.1-0.5-0.2-0.8-0.2s-0.6,0.1-0.8,0.2c-0.2,0.1-0.4,0.3-0.5,0.5
		c-0.1,0.2-0.2,0.5-0.3,0.7c-0.1,0.3-0.1,0.6-0.1,0.9C87.4,52.4,87.4,52.7,87.5,53z"/>
	<path fill="#EDE8D5" d="M94.2,47.4v-1.6h2v1.6H94.2z M96.2,48.5v7.2h-2v-7.2H96.2z"/>
	<path fill="#EDE8D5" d="M99.7,48.5v1h0c0.3-0.4,0.6-0.7,1-0.9c0.4-0.2,0.8-0.3,1.2-0.3c0.5,0,1,0.1,1.3,0.2
		c0.3,0.1,0.6,0.3,0.8,0.6s0.3,0.6,0.4,0.9s0.1,0.8,0.1,1.2v4.4h-2v-4.1c0-0.6-0.1-1-0.3-1.3s-0.5-0.4-1-0.4c-0.5,0-0.9,0.2-1.2,0.5
		c-0.2,0.3-0.4,0.9-0.4,1.6v3.8h-2v-7.2H99.7z"/>
	<path fill="#EDE8D5" d="M110.1,48.5v1.3h-1.5v3.6c0,0.3,0.1,0.6,0.2,0.7s0.3,0.2,0.7,0.2c0.1,0,0.2,0,0.3,0c0.1,0,0.2,0,0.3,0v1.5
		c-0.2,0-0.4,0-0.6,0.1c-0.2,0-0.4,0-0.6,0c-0.3,0-0.6,0-0.9-0.1s-0.5-0.1-0.7-0.2c-0.2-0.1-0.4-0.3-0.5-0.5
		c-0.1-0.2-0.2-0.5-0.2-0.9v-4.3h-1.2v-1.3h1.2v-2.2h2v2.2H110.1z"/>
	<path fill="#EDE8D5" d="M112.7,53.9c0.1,0.2,0.2,0.3,0.3,0.4c0.1,0.1,0.3,0.2,0.5,0.2c0.2,0,0.4,0.1,0.6,0.1c0.1,0,0.3,0,0.4,0
		c0.2,0,0.3-0.1,0.4-0.2c0.1-0.1,0.2-0.2,0.3-0.3c0.1-0.1,0.1-0.3,0.1-0.4c0-0.3-0.2-0.5-0.6-0.7c-0.4-0.1-0.9-0.3-1.7-0.4
		c-0.3-0.1-0.6-0.1-0.8-0.2c-0.3-0.1-0.5-0.2-0.7-0.3c-0.2-0.1-0.4-0.3-0.5-0.5c-0.1-0.2-0.2-0.5-0.2-0.8c0-0.5,0.1-0.8,0.3-1.1
		s0.4-0.5,0.7-0.7c0.3-0.2,0.6-0.3,1-0.4c0.4-0.1,0.8-0.1,1.1-0.1c0.4,0,0.8,0,1.1,0.1c0.4,0.1,0.7,0.2,1,0.4
		c0.3,0.2,0.5,0.4,0.7,0.7s0.3,0.7,0.3,1.1h-1.9c0-0.4-0.2-0.6-0.4-0.8s-0.6-0.2-0.9-0.2c-0.1,0-0.2,0-0.4,0c-0.1,0-0.2,0-0.4,0.1
		c-0.1,0-0.2,0.1-0.3,0.2c-0.1,0.1-0.1,0.2-0.1,0.4c0,0.2,0.1,0.3,0.2,0.4c0.1,0.1,0.3,0.2,0.5,0.3c0.2,0.1,0.4,0.1,0.7,0.2
		s0.5,0.1,0.8,0.2c0.3,0.1,0.6,0.1,0.8,0.2c0.3,0.1,0.5,0.2,0.7,0.4c0.2,0.2,0.4,0.3,0.5,0.6c0.1,0.2,0.2,0.5,0.2,0.8
		c0,0.5-0.1,0.9-0.3,1.2c-0.2,0.3-0.4,0.6-0.7,0.8c-0.3,0.2-0.7,0.3-1.1,0.4c-0.4,0.1-0.8,0.1-1.2,0.1c-0.4,0-0.8,0-1.2-0.1
		c-0.4-0.1-0.8-0.2-1.1-0.4c-0.3-0.2-0.6-0.5-0.8-0.8c-0.2-0.3-0.3-0.7-0.3-1.2h1.9C112.5,53.6,112.6,53.8,112.7,53.9z"/>
	<path fill="#EDE8D5" d="M118.8,55.2c0.2-1.1,0.4-2.1,0.4-3.2c0-1.1-0.1-2.2-0.4-3.3c-0.2-1.1-0.6-2.1-1.1-3.1h1.6c0.6,1,1,2,1.4,3
		c0.3,1.1,0.5,2.2,0.5,3.3c0,0.5,0,1.1-0.1,1.6c-0.1,0.6-0.2,1.1-0.3,1.7c-0.2,0.6-0.3,1.1-0.6,1.6c-0.2,0.5-0.5,1-0.8,1.5h-1.6
		C118.2,57.3,118.6,56.3,118.8,55.2z"/>
</g>
<g>
	<path fill="#2AA198" d="M187.6,59.5l1.8,3.1l0,0c0-0.4,0.2-0.8,0.4-1.2c0.3-0.4,0.6-0.7,1-0.9c0.3-0.2,0.7-0.3,1-0.4
		c0.4-0.1,0.8,0,1.2,0.1c0.4,0.1,0.8,0.3,1.2,0.7c0.4,0.3,0.8,0.8,1.1,1.3c0.3,0.6,0.5,1.1,0.6,1.6s0.1,1,0,1.4
		c-0.1,0.4-0.2,0.8-0.5,1.1c-0.2,0.3-0.5,0.6-0.8,0.7c-0.5,0.3-0.9,0.4-1.4,0.5c-0.4,0.1-0.9,0-1.3-0.3l0,0l0.5,0.8l-1.6,1l-5.1-8.6
		L187.6,59.5z M193.2,62.6c-0.2-0.2-0.4-0.4-0.6-0.5s-0.5-0.2-0.7-0.2c-0.2,0-0.5,0.1-0.8,0.2c-0.2,0.1-0.4,0.3-0.6,0.5
		c-0.1,0.2-0.2,0.5-0.2,0.7c0,0.3,0,0.5,0.1,0.8c0.1,0.3,0.2,0.5,0.4,0.8c0.2,0.3,0.3,0.5,0.5,0.7c0.2,0.2,0.4,0.4,0.6,0.5
		s0.5,0.2,0.7,0.2c0.2,0,0.5-0.1,0.7-0.2c0.3-0.2,0.4-0.3,0.6-0.5c0.1-0.2,0.2-0.4,0.2-0.7c0-0.3,0-0.5-0.1-0.8
		c-0.1-0.3-0.2-0.5-0.4-0.8C193.5,63.1,193.4,62.9,193.2,62.6z"/>
	<path fill="#2AA198" d="M196.3,57.6l0.7,1.2l0,0c0-0.2,0-0.5,0-0.7c0-0.2,0.1-0.5,0.2-0.7c0.1-0.2,0.2-0.4,0.4-0.6
		c0.2-0.2,0.4-0.3,0.6-0.5c0.1-0.1,0.3-0.1,0.4-0.2l0.9,1.6c-0.1,0-0.2,0.1-0.3,0.1c-0.1,0.1-0.2,0.1-0.3,0.2
		c-0.3,0.2-0.6,0.4-0.7,0.6c-0.2,0.2-0.2,0.5-0.3,0.7c0,0.3,0,0.5,0.1,0.8c0.1,0.3,0.2,0.6,0.4,0.8l1.7,2.8l-1.7,1l-3.7-6.2
		L196.3,57.6z"/>
	<path fill="#2AA198" d="M200.1,56.6c0-0.4,0.1-0.7,0.3-1c0.2-0.3,0.4-0.6,0.7-0.9c0.3-0.3,0.6-0.5,1-0.7c0.3-0.2,0.6-0.3,1-0.5
		c0.3-0.1,0.7-0.2,1-0.3c0.3,0,0.7,0,1,0.2c0.3,0.1,0.6,0.4,0.8,0.8l1.9,3.2c0.2,0.3,0.3,0.5,0.5,0.8c0.2,0.2,0.4,0.4,0.5,0.5
		l-1.7,1c-0.1-0.1-0.2-0.2-0.3-0.3c-0.1-0.1-0.2-0.2-0.2-0.3c-0.1,0.4-0.3,0.8-0.6,1.2c-0.3,0.3-0.6,0.6-1,0.8
		c-0.3,0.2-0.6,0.3-0.9,0.4c-0.3,0.1-0.6,0.1-0.9,0.1c-0.3,0-0.5-0.1-0.8-0.3c-0.2-0.2-0.5-0.4-0.7-0.7c-0.2-0.4-0.3-0.7-0.3-1
		c0-0.3,0-0.6,0.2-0.8c0.1-0.3,0.3-0.5,0.5-0.7c0.2-0.2,0.4-0.4,0.7-0.6c0.2-0.2,0.5-0.4,0.7-0.5c0.2-0.2,0.4-0.3,0.6-0.5
		c0.2-0.2,0.3-0.3,0.3-0.5c0.1-0.2,0-0.3-0.1-0.5c-0.1-0.2-0.2-0.3-0.3-0.4c-0.1-0.1-0.3-0.1-0.4-0.1c-0.1,0-0.3,0-0.4,0.1
		c-0.1,0.1-0.3,0.1-0.4,0.2c-0.3,0.2-0.6,0.4-0.7,0.7c-0.1,0.3-0.1,0.6,0.1,0.9l-1.7,1C200.2,57.4,200.1,57,200.1,56.6z M204.9,57.1
		c-0.1,0.1-0.2,0.2-0.3,0.3c-0.1,0.1-0.2,0.2-0.4,0.3c-0.1,0.1-0.3,0.2-0.4,0.3c-0.1,0.1-0.2,0.2-0.3,0.3c-0.1,0.1-0.2,0.2-0.2,0.4
		c-0.1,0.1-0.1,0.3-0.1,0.4c0,0.1,0.1,0.3,0.1,0.4c0.1,0.2,0.2,0.3,0.3,0.3c0.1,0.1,0.2,0.1,0.4,0.1c0.1,0,0.3,0,0.4-0.1
		c0.1-0.1,0.3-0.1,0.4-0.2c0.3-0.2,0.6-0.4,0.7-0.6c0.1-0.2,0.2-0.4,0.2-0.6c0-0.2,0-0.4-0.1-0.6c-0.1-0.2-0.1-0.3-0.2-0.4l-0.4-0.6
		C205.1,56.8,205,57,204.9,57.1z"/>
	<path fill="#2AA198" d="M207.9,50.8l0.5,0.9l0,0c0-0.5,0.1-0.9,0.4-1.3c0.2-0.4,0.6-0.7,0.9-0.9c0.5-0.3,0.9-0.4,1.2-0.5
		c0.4,0,0.7,0,1,0.1c0.3,0.1,0.6,0.3,0.8,0.6c0.3,0.3,0.5,0.6,0.7,1l2.3,3.8l-1.7,1l-2.1-3.5c-0.3-0.5-0.6-0.9-0.9-1
		c-0.3-0.2-0.7-0.1-1.1,0.1c-0.5,0.3-0.7,0.6-0.8,1c0,0.4,0.1,0.9,0.5,1.6l1.9,3.3l-1.7,1l-3.7-6.2L207.9,50.8z"/>
	<path fill="#2AA198" d="M217.1,46.9c-0.3,0.2-0.5,0.4-0.6,0.6c-0.1,0.2-0.2,0.5-0.2,0.7c0,0.3,0,0.5,0.1,0.8
		c0.1,0.3,0.2,0.5,0.3,0.7c0.1,0.2,0.3,0.4,0.5,0.6c0.2,0.2,0.4,0.4,0.6,0.5c0.2,0.1,0.5,0.2,0.7,0.2c0.3,0,0.5-0.1,0.8-0.2
		c0.4-0.2,0.7-0.5,0.7-0.9c0.1-0.4,0-0.7-0.1-1.2l1.7-1c0.4,0.9,0.4,1.7,0.1,2.5c-0.3,0.7-0.8,1.4-1.7,1.8c-0.5,0.3-0.9,0.4-1.4,0.5
		c-0.5,0.1-0.9,0-1.4-0.1c-0.4-0.1-0.8-0.3-1.2-0.6c-0.4-0.3-0.7-0.7-1-1.2c-0.3-0.5-0.5-1-0.6-1.5c-0.1-0.5-0.1-1,0-1.4
		c0.1-0.5,0.3-0.9,0.6-1.3c0.3-0.4,0.7-0.7,1.2-1c0.4-0.2,0.8-0.4,1.2-0.5c0.4-0.1,0.8-0.1,1.2-0.1c0.4,0,0.7,0.2,1.1,0.4
		c0.3,0.2,0.6,0.5,0.9,0.9l-1.7,1C218.5,46.6,217.8,46.5,217.1,46.9z"/>
	<path fill="#2AA198" d="M220.7,40.1l1.9,3.2l0,0c0-0.5,0.1-0.9,0.4-1.3c0.2-0.4,0.5-0.6,0.8-0.8c0.5-0.3,0.9-0.4,1.2-0.5
		c0.4,0,0.7,0,1,0.1c0.3,0.1,0.6,0.3,0.8,0.6c0.3,0.3,0.5,0.6,0.7,1l2.3,3.8l-1.7,1l-2.1-3.5c-0.3-0.5-0.6-0.9-0.9-1
		c-0.3-0.2-0.7-0.1-1.1,0.1c-0.5,0.3-0.7,0.6-0.8,1c0,0.4,0.1,0.9,0.5,1.6l1.9,3.3l-1.7,1l-5.1-8.6L220.7,40.1z"/>
</g>
<g>
	<path fill="#2AA198" d="M282.8,41.1l-0.5,0.8l0,0c0.4-0.2,0.8-0.3,1.3-0.2c0.4,0,0.8,0.2,1.2,0.4c0.4,0.2,0.7,0.5,0.9,0.9
		c0.2,0.4,0.3,0.8,0.2,1.3c0.4-0.2,0.7-0.2,1.2-0.2c0.4,0,0.9,0.1,1.3,0.4c0.3,0.2,0.6,0.4,0.8,0.7c0.2,0.3,0.4,0.5,0.5,0.8
		c0.1,0.3,0.1,0.6,0,1c-0.1,0.4-0.2,0.7-0.5,1.1l-2.6,4.1L285,51l2.2-3.5c0.1-0.2,0.2-0.4,0.3-0.6c0.1-0.2,0.2-0.4,0.2-0.6
		c0-0.2,0-0.4-0.1-0.5c-0.1-0.2-0.2-0.3-0.5-0.5c-0.2-0.1-0.5-0.2-0.7-0.2c-0.2,0-0.4,0-0.6,0.1c-0.2,0.1-0.3,0.2-0.5,0.4
		c-0.1,0.2-0.3,0.3-0.4,0.5l-2.2,3.4l-1.7-1.1l2.2-3.4c0.1-0.2,0.2-0.4,0.3-0.5s0.2-0.4,0.2-0.6c0-0.2,0-0.4-0.1-0.5
		c-0.1-0.2-0.3-0.4-0.5-0.5c-0.1-0.1-0.2-0.1-0.3-0.1c-0.2,0-0.3-0.1-0.5,0c-0.2,0-0.4,0.1-0.6,0.2c-0.2,0.1-0.4,0.3-0.6,0.6
		l-2.3,3.5l-1.7-1.1l3.9-6.1L282.8,41.1z"/>
	<path fill="#2AA198" d="M290.7,52.6c0.1,0.4,0.4,0.8,0.9,1.1c0.3,0.2,0.7,0.3,1,0.3s0.6-0.1,0.8-0.3l1.5,0.9
		c-0.7,0.6-1.4,0.9-2.1,0.9c-0.7,0-1.4-0.2-2.1-0.7c-0.5-0.3-0.9-0.7-1.2-1.1c-0.3-0.4-0.5-0.8-0.6-1.3c-0.1-0.5-0.1-0.9,0-1.4
		c0.1-0.5,0.3-1,0.6-1.4c0.3-0.5,0.6-0.8,1-1.1c0.4-0.3,0.8-0.5,1.3-0.6c0.5-0.1,0.9-0.1,1.4-0.1c0.5,0.1,1,0.3,1.4,0.6
		c0.5,0.3,0.9,0.7,1.2,1.2s0.4,0.9,0.4,1.4s0,1-0.2,1.5c-0.2,0.5-0.4,1-0.7,1.4l-4.4-2.8C290.7,51.7,290.6,52.2,290.7,52.6z
		 M294.7,50.6c-0.1-0.3-0.3-0.7-0.7-0.9c-0.3-0.2-0.5-0.3-0.8-0.3c-0.2,0-0.4,0-0.6,0.1c-0.2,0.1-0.4,0.2-0.5,0.3
		c-0.1,0.1-0.2,0.2-0.3,0.4l2.7,1.7C294.7,51.4,294.7,51,294.7,50.6z"/>
	<path fill="#2AA198" d="M300.3,52.2l-0.7,1.1l0,0c0.2-0.1,0.4-0.2,0.7-0.3c0.2-0.1,0.5-0.1,0.7-0.1c0.2,0,0.5,0,0.7,0.1
		c0.2,0.1,0.5,0.2,0.7,0.3c0.1,0.1,0.2,0.2,0.3,0.3l-1,1.6c-0.1-0.1-0.2-0.1-0.3-0.2c-0.1-0.1-0.2-0.2-0.3-0.2
		c-0.3-0.2-0.6-0.3-0.9-0.3c-0.3,0-0.5,0-0.8,0.1c-0.2,0.1-0.5,0.2-0.7,0.4c-0.2,0.2-0.4,0.4-0.6,0.7l-1.8,2.8l-1.7-1.1l3.9-6.1
		L300.3,52.2z"/>
	<path fill="#2AA198" d="M304.5,64.1c-0.3,0.3-0.6,0.5-1,0.6c-0.4,0.1-0.9,0.2-1.4,0.1c-0.5-0.1-1.2-0.3-1.9-0.8
		c-0.3-0.2-0.6-0.4-0.8-0.7c-0.3-0.3-0.5-0.6-0.6-0.9c-0.2-0.3-0.2-0.7-0.3-1c0-0.4,0.1-0.7,0.3-1.1l1.7,1.1c-0.1,0.4-0.1,0.7,0,1
		c0.2,0.3,0.4,0.5,0.7,0.7c0.5,0.3,0.9,0.4,1.3,0.2c0.4-0.1,0.7-0.4,1-0.9l0.5-0.8l0,0c-0.4,0.2-0.8,0.3-1.2,0.2
		c-0.4-0.1-0.8-0.2-1.2-0.4c-0.5-0.3-0.8-0.6-1-1c-0.2-0.4-0.4-0.8-0.4-1.2c0-0.4,0-0.8,0.2-1.3c0.1-0.4,0.3-0.9,0.6-1.3
		c0.2-0.4,0.5-0.7,0.9-1c0.3-0.3,0.7-0.5,1.1-0.6c0.4-0.1,0.8-0.2,1.2-0.1c0.4,0,0.9,0.2,1.3,0.5c0.4,0.3,0.7,0.6,0.9,0.9
		c0.2,0.3,0.3,0.8,0.3,1.2l0,0l0.5-0.8l1.6,1l-3.6,5.7C305,63.6,304.8,63.8,304.5,64.1z M303.5,60.6c0.2,0,0.5,0,0.7-0.1
		c0.2-0.1,0.4-0.2,0.6-0.4c0.2-0.2,0.4-0.4,0.5-0.6c0.2-0.3,0.3-0.5,0.4-0.8c0.1-0.3,0.1-0.5,0.1-0.7c0-0.2-0.1-0.5-0.2-0.7
		c-0.1-0.2-0.3-0.4-0.6-0.6c-0.2-0.1-0.5-0.2-0.7-0.2c-0.2,0-0.5,0-0.7,0.1c-0.2,0.1-0.4,0.2-0.6,0.4s-0.3,0.4-0.5,0.6
		c-0.1,0.2-0.3,0.5-0.4,0.7c-0.1,0.2-0.1,0.5-0.1,0.7c0,0.2,0,0.5,0.1,0.7c0.1,0.2,0.3,0.4,0.5,0.6
		C303.1,60.5,303.3,60.6,303.5,60.6z"/>
	<path fill="#2AA198" d="M309,64.2c0.1,0.4,0.4,0.8,0.9,1.1c0.3,0.2,0.7,0.3,1,0.3c0.4,0,0.6-0.1,0.8-0.3l1.5,0.9
		c-0.7,0.6-1.4,0.9-2.1,0.9c-0.7,0-1.4-0.2-2.1-0.7c-0.5-0.3-0.9-0.7-1.2-1.1c-0.3-0.4-0.5-0.8-0.6-1.3c-0.1-0.5-0.1-0.9,0-1.4
		c0.1-0.5,0.3-1,0.6-1.4c0.3-0.5,0.6-0.8,1-1.1c0.4-0.3,0.8-0.5,1.3-0.6c0.5-0.1,0.9-0.1,1.4-0.1c0.5,0.1,1,0.3,1.4,0.6
		c0.5,0.3,0.9,0.7,1.2,1.2c0.3,0.4,0.4,0.9,0.4,1.4c0,0.5,0,1-0.2,1.5c-0.2,0.5-0.4,1-0.7,1.4l-4.4-2.8
		C309,63.3,308.9,63.8,309,64.2z M312.9,62.2c-0.1-0.3-0.3-0.7-0.7-0.9c-0.3-0.2-0.5-0.3-0.8-0.3c-0.2,0-0.4,0-0.6,0.1
		c-0.2,0.1-0.4,0.2-0.5,0.3c-0.1,0.1-0.2,0.2-0.3,0.4l2.7,1.7C312.9,63,313,62.6,312.9,62.2z"/>
</g>
<polygon fill="#DC332D" points="320.1,103.7 327.2,96.6 334.3,103.7 "/>
<g>
	<path fill="#B48A2E" d="M288,116.1l-1.3-4.9h0l-1.2,4.9h-2.1l-2.3-7.2h2.1l1.3,4.9h0l1.2-4.9h1.9l1.2,4.9h0l1.3-4.9h2l-2.3,7.2H288
		z"/>
	<path fill="#B48A2E" d="M292.9,110.9c0.2-0.5,0.4-0.9,0.8-1.2c0.3-0.3,0.7-0.6,1.2-0.8c0.5-0.2,1-0.3,1.5-0.3s1.1,0.1,1.5,0.3
		c0.5,0.2,0.9,0.4,1.2,0.8c0.3,0.3,0.6,0.7,0.8,1.2c0.2,0.5,0.3,1,0.3,1.6c0,0.6-0.1,1.1-0.3,1.6s-0.4,0.9-0.8,1.2
		c-0.3,0.3-0.7,0.6-1.2,0.8s-1,0.3-1.5,0.3s-1.1-0.1-1.5-0.3c-0.5-0.2-0.8-0.4-1.2-0.8c-0.3-0.3-0.6-0.7-0.8-1.2
		c-0.2-0.5-0.3-1-0.3-1.6C292.6,111.9,292.7,111.4,292.9,110.9z M294.7,113.4c0.1,0.3,0.2,0.5,0.3,0.7c0.1,0.2,0.3,0.4,0.5,0.5
		c0.2,0.1,0.5,0.2,0.8,0.2s0.6-0.1,0.8-0.2c0.2-0.1,0.4-0.3,0.5-0.5c0.1-0.2,0.2-0.5,0.3-0.7c0.1-0.3,0.1-0.6,0.1-0.8
		c0-0.3,0-0.6-0.1-0.9c-0.1-0.3-0.2-0.5-0.3-0.7c-0.1-0.2-0.3-0.4-0.5-0.5c-0.2-0.1-0.5-0.2-0.8-0.2s-0.6,0.1-0.8,0.2
		c-0.2,0.1-0.4,0.3-0.5,0.5c-0.1,0.2-0.2,0.5-0.3,0.7c-0.1,0.3-0.1,0.6-0.1,0.9C294.6,112.8,294.6,113.1,294.7,113.4z"/>
	<path fill="#B48A2E" d="M303,108.9v1.3h0c0.1-0.2,0.2-0.4,0.4-0.6c0.2-0.2,0.3-0.4,0.5-0.5c0.2-0.1,0.4-0.2,0.7-0.3
		c0.2-0.1,0.5-0.1,0.7-0.1c0.1,0,0.3,0,0.4,0.1v1.8c-0.1,0-0.2,0-0.3-0.1c-0.1,0-0.3,0-0.4,0c-0.4,0-0.7,0.1-0.9,0.2
		c-0.3,0.1-0.5,0.3-0.6,0.5c-0.2,0.2-0.3,0.5-0.3,0.7s-0.1,0.6-0.1,0.9v3.3h-2v-7.2L303,108.9L303,108.9z"/>
	<path fill="#B48A2E" d="M308.5,106.1v5.4l2.5-2.6h2.4l-2.7,2.7l3,4.6h-2.4l-2-3.2l-0.8,0.7v2.5h-2v-10H308.5z"/>
	<path fill="#B48A2E" d="M314.1,106.8v-1.6h2v1.6H314.1z M316.1,108.9v7.2h-2v-7.2H316.1z"/>
	<path fill="#B48A2E" d="M319.3,108.9v1h0c0.3-0.4,0.6-0.7,1-0.9c0.4-0.2,0.8-0.3,1.2-0.3c0.5,0,1,0.1,1.3,0.2s0.6,0.3,0.8,0.6
		c0.2,0.3,0.3,0.6,0.4,0.9c0.1,0.4,0.1,0.8,0.1,1.2v4.5h-2V112c0-0.6-0.1-1-0.3-1.3c-0.2-0.3-0.5-0.4-1-0.4c-0.5,0-0.9,0.2-1.2,0.5
		c-0.2,0.3-0.4,0.9-0.4,1.6v3.8h-2v-7.2L319.3,108.9L319.3,108.9z"/>
	<path fill="#B48A2E" d="M332.2,116.7c-0.1,0.4-0.2,0.7-0.5,1c-0.3,0.3-0.6,0.6-1.1,0.8c-0.5,0.2-1.2,0.3-2,0.3
		c-0.4,0-0.7,0-1.1-0.1c-0.4-0.1-0.7-0.2-1-0.4c-0.3-0.2-0.6-0.4-0.8-0.7c-0.2-0.3-0.3-0.6-0.3-1.1h2c0.1,0.4,0.3,0.6,0.5,0.8
		c0.3,0.1,0.6,0.2,0.9,0.2c0.6,0,1-0.2,1.2-0.5c0.3-0.3,0.4-0.8,0.4-1.3v-1h0c-0.2,0.4-0.5,0.7-0.9,0.8c-0.4,0.2-0.8,0.3-1.3,0.3
		c-0.5,0-1-0.1-1.4-0.3c-0.4-0.2-0.7-0.5-1-0.8c-0.3-0.3-0.4-0.7-0.6-1.2c-0.1-0.4-0.2-0.9-0.2-1.4c0-0.5,0.1-0.9,0.2-1.4
		c0.1-0.4,0.3-0.8,0.6-1.1c0.3-0.3,0.6-0.6,1-0.8c0.4-0.2,0.8-0.3,1.3-0.3c0.5,0,0.9,0.1,1.3,0.3c0.4,0.2,0.7,0.5,0.9,0.9h0v-1h1.9
		v6.8C332.4,115.9,332.3,116.3,332.2,116.7z M329.5,114.2c0.2-0.1,0.4-0.3,0.5-0.4c0.1-0.2,0.2-0.4,0.3-0.6c0.1-0.2,0.1-0.5,0.1-0.7
		c0-0.3,0-0.6-0.1-0.8c-0.1-0.3-0.1-0.5-0.3-0.7c-0.1-0.2-0.3-0.4-0.5-0.5c-0.2-0.1-0.5-0.2-0.8-0.2c-0.3,0-0.5,0.1-0.7,0.2
		c-0.2,0.1-0.4,0.3-0.5,0.5c-0.1,0.2-0.2,0.4-0.3,0.7c-0.1,0.2-0.1,0.5-0.1,0.8c0,0.3,0,0.5,0.1,0.8c0.1,0.3,0.1,0.5,0.3,0.7
		c0.1,0.2,0.3,0.4,0.5,0.5c0.2,0.1,0.5,0.2,0.8,0.2C329,114.4,329.3,114.4,329.5,114.2z"/>
	<path fill="#B48A2E" d="M336.5,110.2v-1.3h1.2v-0.6c0-0.6,0.2-1.2,0.6-1.6c0.4-0.4,1-0.6,1.8-0.6c0.2,0,0.4,0,0.5,0
		c0.2,0,0.4,0,0.5,0v1.5c-0.2,0-0.5,0-0.7,0c-0.3,0-0.5,0.1-0.6,0.2c-0.1,0.1-0.2,0.3-0.2,0.6v0.4h1.4v1.3h-1.4v5.9h-2v-5.9
		L336.5,110.2L336.5,110.2z"/>
	<path fill="#B48A2E" d="M341.7,110.9c0.2-0.5,0.4-0.9,0.8-1.2c0.3-0.3,0.7-0.6,1.2-0.8c0.5-0.2,1-0.3,1.5-0.3
		c0.6,0,1.1,0.1,1.5,0.3c0.5,0.2,0.9,0.4,1.2,0.8c0.3,0.3,0.6,0.7,0.8,1.2c0.2,0.5,0.3,1,0.3,1.6c0,0.6-0.1,1.1-0.3,1.6
		s-0.4,0.9-0.8,1.2c-0.3,0.3-0.7,0.6-1.2,0.8s-1,0.3-1.5,0.3s-1.1-0.1-1.5-0.3c-0.5-0.2-0.9-0.4-1.2-0.8c-0.3-0.3-0.6-0.7-0.8-1.2
		s-0.3-1-0.3-1.6C341.4,111.9,341.5,111.4,341.7,110.9z M343.5,113.4c0.1,0.3,0.2,0.5,0.3,0.7c0.1,0.2,0.3,0.4,0.5,0.5
		c0.2,0.1,0.5,0.2,0.8,0.2s0.6-0.1,0.8-0.2s0.4-0.3,0.5-0.5c0.1-0.2,0.2-0.5,0.3-0.7c0.1-0.3,0.1-0.6,0.1-0.8c0-0.3,0-0.6-0.1-0.9
		c-0.1-0.3-0.2-0.5-0.3-0.7s-0.3-0.4-0.5-0.5c-0.2-0.1-0.5-0.2-0.8-0.2s-0.6,0.1-0.8,0.2c-0.2,0.1-0.4,0.3-0.5,0.5
		c-0.1,0.2-0.2,0.5-0.3,0.7s-0.1,0.6-0.1,0.9C343.4,112.8,343.5,113.1,343.5,113.4z"/>
	<path fill="#B48A2E" d="M352,106.1v10h-2v-10H352z"/>
	<path fill="#B48A2E" d="M358.4,115.2c-0.2,0.4-0.5,0.7-0.9,0.8c-0.4,0.2-0.8,0.3-1.3,0.3c-0.5,0-1-0.1-1.4-0.3
		c-0.4-0.2-0.7-0.5-1-0.9c-0.3-0.4-0.5-0.8-0.6-1.2s-0.2-1-0.2-1.5c0-0.5,0.1-1,0.2-1.4c0.1-0.5,0.3-0.9,0.6-1.2
		c0.3-0.3,0.6-0.6,1-0.8c0.4-0.2,0.9-0.3,1.4-0.3c0.4,0,0.8,0.1,1.2,0.3c0.4,0.2,0.7,0.4,0.9,0.8h0v-3.6h2v10h-1.9L358.4,115.2
		L358.4,115.2L358.4,115.2z M358.3,111.6c-0.1-0.3-0.2-0.5-0.3-0.7c-0.1-0.2-0.3-0.4-0.5-0.5c-0.2-0.1-0.5-0.2-0.8-0.2
		s-0.6,0.1-0.8,0.2c-0.2,0.1-0.4,0.3-0.5,0.5c-0.1,0.2-0.2,0.5-0.3,0.7c-0.1,0.3-0.1,0.6-0.1,0.9c0,0.3,0,0.6,0.1,0.8
		s0.2,0.5,0.3,0.7c0.1,0.2,0.3,0.4,0.5,0.5c0.2,0.1,0.5,0.2,0.8,0.2c0.3,0,0.6-0.1,0.8-0.2s0.4-0.3,0.5-0.5c0.1-0.2,0.2-0.5,0.3-0.7
		c0.1-0.3,0.1-0.6,0.1-0.9S358.4,111.9,358.3,111.6z"/>
	<path fill="#B48A2E" d="M363.7,114.4c0.3,0.3,0.7,0.4,1.3,0.4c0.4,0,0.7-0.1,1-0.3c0.3-0.2,0.5-0.4,0.5-0.6h1.8
		c-0.3,0.9-0.7,1.5-1.3,1.9c-0.6,0.4-1.3,0.6-2.1,0.6c-0.6,0-1.1-0.1-1.5-0.3c-0.5-0.2-0.8-0.4-1.2-0.8c-0.3-0.3-0.6-0.7-0.7-1.2
		c-0.2-0.5-0.3-1-0.3-1.5c0-0.5,0.1-1,0.3-1.5c0.2-0.5,0.4-0.9,0.8-1.2c0.3-0.3,0.7-0.6,1.2-0.8s1-0.3,1.5-0.3
		c0.6,0,1.2,0.1,1.6,0.4c0.5,0.2,0.8,0.6,1.1,1s0.5,0.9,0.6,1.4c0.1,0.5,0.2,1.1,0.1,1.6h-5.2C363.2,113.6,363.4,114.1,363.7,114.4z
		 M365.9,110.6c-0.2-0.3-0.6-0.4-1.1-0.4c-0.3,0-0.6,0.1-0.8,0.2c-0.2,0.1-0.4,0.2-0.5,0.4c-0.1,0.2-0.2,0.3-0.3,0.5
		c-0.1,0.2-0.1,0.3-0.1,0.5h3.2C366.3,111.2,366.2,110.8,365.9,110.6z"/>
	<path fill="#B48A2E" d="M371.2,108.9v1.3h0c0.1-0.2,0.2-0.4,0.4-0.6c0.2-0.2,0.3-0.4,0.5-0.5c0.2-0.1,0.4-0.2,0.7-0.3
		c0.2-0.1,0.5-0.1,0.7-0.1c0.1,0,0.3,0,0.4,0.1v1.8c-0.1,0-0.2,0-0.3-0.1c-0.1,0-0.3,0-0.4,0c-0.4,0-0.7,0.1-0.9,0.2
		c-0.3,0.1-0.5,0.3-0.6,0.5c-0.2,0.2-0.3,0.5-0.3,0.7c-0.1,0.3-0.1,0.6-0.1,0.9v3.3h-2v-7.2L371.2,108.9L371.2,108.9z"/>
</g>
<line fill="none" stroke="#B48A2E" stroke-miterlimit="10" x1="191.4" y1="84" x2="312.7" y2="84"/>
</svg>
